<svg xmlns="http://www.w3.org/2000/svg" viewBox="0 0 1600 900" role="img" aria-label="商业区雨夜">
  <defs>
    <linearGradient id="g" x1="0" x2="1" y1="0" y2="1">
      <stop offset="0%" stop-color="#061425"/>
      <stop offset="55%" stop-color="#071426"/>
      <stop offset="100%" stop-color="#1f1027"/>
    </linearGradient>
    <radialGradient id="r" cx="66%" cy="22%" r="48%">
      <stop offset="0%" stop-color="#27c9ff" stop-opacity=".52"/>
      <stop offset="68%" stop-color="#27c9ff" stop-opacity=".08"/>
      <stop offset="100%" stop-color="#000" stop-opacity="0"/>
    </radialGradient>
    <filter id="glow"><feGaussianBlur stdDeviation="7" result="b"/><feMerge><feMergeNode in="b"/><feMergeNode in="SourceGraphic"/></feMerge></filter>
    <pattern id="rain" width="80" height="80" patternUnits="userSpaceOnUse" patternTransform="rotate(15)">
      <line x1="8" y1="0" x2="8" y2="34" stroke="#9bc7ff" stroke-width="2" opacity=".20"/>
      <line x1="47" y1="16" x2="47" y2="58" stroke="#fff" stroke-width="1" opacity=".11"/>
    </pattern>
  </defs>
  <rect width="1600" height="900" fill="url(#g)"/>
  <rect width="1600" height="900" fill="url(#r)"/>
  
<g opacity=".92">
  <rect x="80" y="120" width="130" height="560" rx="6" fill="#0a1a2b"/>
  <rect x="260" y="60" width="200" height="650" rx="8" fill="#081420"/>
  <rect x="500" y="160" width="160" height="540" rx="8" fill="#0b2034"/>
  <rect x="950" y="80" width="250" height="630" rx="8" fill="#09182a"/>
  <rect x="1240" y="160" width="190" height="520" rx="8" fill="#0a1d30"/>
  <g fill="#ffd57a" opacity=".72">
    <rect x="100" y="160" width="32" height="12"/><rect x="150" y="230" width="42" height="12"/>
    <rect x="292" y="120" width="44" height="12"/><rect x="370" y="210" width="54" height="12"/>
    <rect x="990" y="150" width="60" height="12"/><rect x="1110" y="250" width="54" height="12"/>
  </g>
  <rect x="705" y="95" width="95" height="460" rx="10" fill="#6e214c" filter="url(#glow)"/>
  <text x="725" y="155" writing-mode="tb" font-size="56" fill="#ffd8a1" font-family="serif" letter-spacing="8">商业区路口</text>
  <rect x="1180" y="230" width="270" height="90" rx="16" fill="#0b2944" stroke="#23e6ff" stroke-width="4" filter="url(#glow)"/>
  <text x="1235" y="292" font-size="48" fill="#77f6ff" font-family="sans-serif" font-weight="700">便利店 24h</text>
  <g stroke="#f6b94b" stroke-width="10" opacity=".75">
    <line x1="1080" y1="610" x2="1510" y2="540"/><line x1="1120" y1="660" x2="1545" y2="590"/>
  </g>
</g>

  <rect width="1600" height="900" fill="url(#rain)" opacity=".75"/>
  <rect y="700" width="1600" height="200" fill="#02060c" opacity=".52"/>
  <path d="M0 820 C280 760 390 860 650 805 S1120 760 1600 830 L1600 900 L0 900Z" fill="#030913" opacity=".72"/>
</svg>