<svg xmlns="http://www.w3.org/2000/svg" viewBox="0 0 1600 900" role="img" aria-label="法庭">
  <defs>
    <linearGradient id="g" x1="0" x2="1" y1="0" y2="1">
      <stop offset="0%" stop-color="#070b16"/>
      <stop offset="55%" stop-color="#071426"/>
      <stop offset="100%" stop-color="#1e0f08"/>
    </linearGradient>
    <radialGradient id="r" cx="66%" cy="22%" r="48%">
      <stop offset="0%" stop-color="#f3b85b" stop-opacity=".52"/>
      <stop offset="68%" stop-color="#f3b85b" stop-opacity=".08"/>
      <stop offset="100%" stop-color="#000" stop-opacity="0"/>
    </radialGradient>
    <filter id="glow"><feGaussianBlur stdDeviation="7" result="b"/><feMerge><feMergeNode in="b"/><feMergeNode in="SourceGraphic"/></feMerge></filter>
    <pattern id="rain" width="80" height="80" patternUnits="userSpaceOnUse" patternTransform="rotate(15)">
      <line x1="8" y1="0" x2="8" y2="34" stroke="#9bc7ff" stroke-width="2" opacity=".20"/>
      <line x1="47" y1="16" x2="47" y2="58" stroke="#fff" stroke-width="1" opacity=".11"/>
    </pattern>
  </defs>
  <rect width="1600" height="900" fill="url(#g)"/>
  <rect width="1600" height="900" fill="url(#r)"/>
  
<rect x="110" y="110" width="1380" height="650" rx="24" fill="#0a1420" stroke="#bd8d40" stroke-width="4" opacity=".93"/>
<path d="M250 640 L1350 640 L1220 330 L380 330Z" fill="#231406" stroke="#f0b95b" stroke-width="4"/>
<rect x="570" y="175" width="460" height="120" rx="16" fill="#1b2636" stroke="#f4c469"/>
<text x="645" y="252" font-size="60" fill="#ffe1a0" font-family="serif" font-weight="700">法庭对决</text>
<g fill="#d8e8ff" opacity=".3"><circle cx="310" cy="455" r="55"/><circle cx="1290" cy="455" r="55"/><circle cx="800" cy="525" r="72"/></g>
<path d="M770 390 h60 l-15 100 h-30z" fill="#f5c15b" opacity=".9"/>

  <rect width="1600" height="900" fill="url(#rain)" opacity=".75"/>
  <rect y="700" width="1600" height="200" fill="#02060c" opacity=".52"/>
  <path d="M0 820 C280 760 390 860 650 805 S1120 760 1600 830 L1600 900 L0 900Z" fill="#030913" opacity=".72"/>
</svg>