<svg xmlns="http://www.w3.org/2000/svg" viewBox="0 0 1600 900" role="img" aria-label="会见室">
  <defs>
    <linearGradient id="g" x1="0" x2="1" y1="0" y2="1">
      <stop offset="0%" stop-color="#050b15"/>
      <stop offset="55%" stop-color="#071426"/>
      <stop offset="100%" stop-color="#0a2131"/>
    </linearGradient>
    <radialGradient id="r" cx="66%" cy="22%" r="48%">
      <stop offset="0%" stop-color="#d69d37" stop-opacity=".52"/>
      <stop offset="68%" stop-color="#d69d37" stop-opacity=".08"/>
      <stop offset="100%" stop-color="#000" stop-opacity="0"/>
    </radialGradient>
    <filter id="glow"><feGaussianBlur stdDeviation="7" result="b"/><feMerge><feMergeNode in="b"/><feMergeNode in="SourceGraphic"/></feMerge></filter>
    <pattern id="rain" width="80" height="80" patternUnits="userSpaceOnUse" patternTransform="rotate(15)">
      <line x1="8" y1="0" x2="8" y2="34" stroke="#9bc7ff" stroke-width="2" opacity=".22"/>
      <line x1="47" y1="16" x2="47" y2="58" stroke="#fff" stroke-width="1" opacity=".12"/>
    </pattern>
  </defs>
  <rect width="1600" height="900" fill="url(#g)"/>
  <rect width="1600" height="900" fill="url(#r)"/>
  
<rect x="210" y="115" width="1180" height="640" rx="24" fill="#071320" stroke="#7399bf" stroke-width="3" opacity=".93"/>
<rect x="300" y="220" width="1000" height="260" rx="22" fill="#0d2237"/>
<line x1="800" y1="220" x2="800" y2="480" stroke="#8eb7d7" stroke-width="4" opacity=".35"/>
<rect x="420" y="560" width="760" height="80" rx="16" fill="#111b28" stroke="#f3bd59" opacity=".9"/>
<circle cx="560" cy="335" r="86" fill="#112c45" stroke="#c9e7ff"/>
<circle cx="1040" cy="335" r="86" fill="#28131c" stroke="#ffd188"/>
<text x="455" y="675" font-size="42" fill="#ffd889" font-family="serif">会见室：每个沉默，都在等待问题的钥匙</text>

  <rect width="1600" height="900" fill="url(#rain)" opacity=".75"/>
  <rect y="700" width="1600" height="200" fill="#02060c" opacity=".52"/>
  <path d="M0 820 C280 760 390 860 650 805 S1120 760 1600 830 L1600 900 L0 900Z" fill="#030913" opacity=".72"/>
</svg>