<svg xmlns="http://www.w3.org/2000/svg" viewBox="0 0 1600 900">
<defs>
  <linearGradient id="sky" x1="0" x2="0" y1="0" y2="1">
    <stop offset="0%" stop-color="#09172a"/>
    <stop offset="55%" stop-color="#11253c"/>
    <stop offset="100%" stop-color="#050910"/>
  </linearGradient>
</defs>
<rect width="1600" height="900" fill="url(#sky)"/>
<g opacity="0.18" fill="#c7e1ff">
  <rect x="70" y="180" width="48" height="340"/>
  <rect x="135" y="120" width="62" height="400"/>
  <rect x="220" y="80" width="88" height="440"/>
  <rect x="330" y="150" width="60" height="370"/>
  <rect x="415" y="95" width="76" height="425"/>
  <rect x="520" y="200" width="52" height="320"/>
  <rect x="1025" y="90" width="92" height="430"/>
  <rect x="1135" y="130" width="70" height="390"/>
  <rect x="1220" y="60" width="100" height="460"/>
  <rect x="1340" y="160" width="66" height="360"/>
  <rect x="1420" y="110" width="88" height="410"/>
</g>
<rect x="0" y="560" width="1600" height="340" fill="#090f17"/>
<rect x="0" y="520" width="1600" height="46" fill="#101b29"/>
<g stroke="#5e7c9b" stroke-width="8" opacity="0.8">
  <line x1="70" y1="520" x2="1530" y2="520"/>
  <line x1="160" y1="520" x2="160" y2="760"/>
  <line x1="400" y1="520" x2="400" y2="760"/>
  <line x1="640" y1="520" x2="640" y2="760"/>
  <line x1="880" y1="520" x2="880" y2="760"/>
  <line x1="1120" y1="520" x2="1120" y2="760"/>
  <line x1="1360" y1="520" x2="1360" y2="760"/>
</g>
<g fill="#16314b" stroke="#7aa0c4" stroke-width="4">
  <rect x="1190" y="280" width="180" height="160" rx="14"/>
  <rect x="990" y="305" width="120" height="130" rx="12"/>
  <rect x="270" y="310" width="220" height="60" rx="10"/>
</g>
<circle cx="1310" cy="180" r="50" fill="#f6cf7d" opacity="0.75"/>
<text x="110" y="110" fill="#f4d28b" font-size="34" font-family="serif">金融街天台</text>
<text x="110" y="838" fill="#d6ae66" font-size="40" font-family="serif">风会把谎言吹散，也会把人逼到边缘。</text>
</svg>