<svg xmlns="http://www.w3.org/2000/svg" viewBox="0 0 1600 900" role="img" aria-label="旧码头">
  <defs>
    <linearGradient id="g" x1="0" x2="1" y1="0" y2="1">
      <stop offset="0%" stop-color="#070b12"/>
      <stop offset="55%" stop-color="#071426"/>
      <stop offset="100%" stop-color="#162137"/>
    </linearGradient>
    <radialGradient id="r" cx="66%" cy="22%" r="48%">
      <stop offset="0%" stop-color="#42d6ff" stop-opacity=".52"/>
      <stop offset="68%" stop-color="#42d6ff" stop-opacity=".08"/>
      <stop offset="100%" stop-color="#000" stop-opacity="0"/>
    </radialGradient>
    <filter id="glow"><feGaussianBlur stdDeviation="7" result="b"/><feMerge><feMergeNode in="b"/><feMergeNode in="SourceGraphic"/></feMerge></filter>
    <pattern id="rain" width="80" height="80" patternUnits="userSpaceOnUse" patternTransform="rotate(15)">
      <line x1="8" y1="0" x2="8" y2="34" stroke="#9bc7ff" stroke-width="2" opacity=".20"/>
      <line x1="47" y1="16" x2="47" y2="58" stroke="#fff" stroke-width="1" opacity=".11"/>
    </pattern>
  </defs>
  <rect width="1600" height="900" fill="url(#g)"/>
  <rect width="1600" height="900" fill="url(#r)"/>
  
<rect x="0" y="520" width="1600" height="240" fill="#07101a" opacity=".88"/>
<g stroke="#234761" stroke-width="24" opacity=".8">
  <line x1="120" y1="620" x2="1480" y2="620"/><line x1="260" y1="520" x2="230" y2="760"/><line x1="720" y1="520" x2="690" y2="760"/><line x1="1180" y1="520" x2="1150" y2="760"/>
</g>
<rect x="980" y="250" width="360" height="220" rx="18" fill="#0b2338" stroke="#51e0ff" stroke-width="4"/>
<rect x="180" y="280" width="440" height="170" rx="16" fill="#1a2230" stroke="#f2b95c" stroke-width="4"/>
<text x="235" y="385" font-size="64" fill="#ffd98e" font-family="serif">旧码头仓库</text>
<circle cx="1340" cy="570" r="60" fill="#742023" opacity=".65"/>

  <rect width="1600" height="900" fill="url(#rain)" opacity=".75"/>
  <rect y="700" width="1600" height="200" fill="#02060c" opacity=".52"/>
  <path d="M0 820 C280 760 390 860 650 805 S1120 760 1600 830 L1600 900 L0 900Z" fill="#030913" opacity=".72"/>
</svg>