<svg xmlns="http://www.w3.org/2000/svg" viewBox="0 0 1600 900" role="img" aria-label="便利店现场">
  <defs>
    <linearGradient id="g" x1="0" x2="1" y1="0" y2="1">
      <stop offset="0%" stop-color="#071021"/>
      <stop offset="55%" stop-color="#071426"/>
      <stop offset="100%" stop-color="#210915"/>
    </linearGradient>
    <radialGradient id="r" cx="66%" cy="22%" r="48%">
      <stop offset="0%" stop-color="#fece63" stop-opacity=".52"/>
      <stop offset="68%" stop-color="#fece63" stop-opacity=".08"/>
      <stop offset="100%" stop-color="#000" stop-opacity="0"/>
    </radialGradient>
    <filter id="glow"><feGaussianBlur stdDeviation="7" result="b"/><feMerge><feMergeNode in="b"/><feMergeNode in="SourceGraphic"/></feMerge></filter>
    <pattern id="rain" width="80" height="80" patternUnits="userSpaceOnUse" patternTransform="rotate(15)">
      <line x1="8" y1="0" x2="8" y2="34" stroke="#9bc7ff" stroke-width="2" opacity=".20"/>
      <line x1="47" y1="16" x2="47" y2="58" stroke="#fff" stroke-width="1" opacity=".11"/>
    </pattern>
  </defs>
  <rect width="1600" height="900" fill="url(#g)"/>
  <rect width="1600" height="900" fill="url(#r)"/>
  
<rect x="160" y="150" width="1180" height="520" rx="24" fill="#091a2b" stroke="#77e9ff" stroke-width="3" opacity=".9"/>
<rect x="220" y="210" width="1060" height="180" rx="16" fill="#102f4c"/>
<text x="520" y="325" font-size="90" fill="#8ff7ff" font-family="sans-serif" font-weight="800" filter="url(#glow)">便利店</text>
<g fill="#ffd26c" opacity=".8"><rect x="250" y="430" width="130" height="160" rx="8"/><rect x="430" y="430" width="130" height="160" rx="8"/><rect x="610" y="430" width="130" height="160" rx="8"/></g>
<circle cx="1030" cy="514" r="70" fill="#7b0f18" opacity=".75"/>
<path d="M1030 514 C1080 470 1128 493 1160 534" fill="none" stroke="#b71924" stroke-width="18" opacity=".5"/>
<rect x="1120" y="430" width="120" height="170" rx="10" fill="#07101b" stroke="#d7e8ff" opacity=".8"/>
<g stroke="#f8c35a" stroke-width="8"><line x1="130" y1="675" x2="1480" y2="590"/><line x1="160" y1="720" x2="1510" y2="635"/></g>

  <rect width="1600" height="900" fill="url(#rain)" opacity=".75"/>
  <rect y="700" width="1600" height="200" fill="#02060c" opacity=".52"/>
  <path d="M0 820 C280 760 390 860 650 805 S1120 760 1600 830 L1600 900 L0 900Z" fill="#030913" opacity=".72"/>
</svg>