<svg xmlns="http://www.w3.org/2000/svg" viewBox="0 0 1600 900">
<defs>
  <linearGradient id="bg" x1="0" x2="0" y1="0" y2="1">
    <stop offset="0%" stop-color="#081321"/>
    <stop offset="100%" stop-color="#02070d"/>
  </linearGradient>
  <linearGradient id="gold" x1="0" x2="1">
    <stop offset="0%" stop-color="#d59d43"/>
    <stop offset="100%" stop-color="#f5d086"/>
  </linearGradient>
</defs>
<rect width="1600" height="900" fill="url(#bg)"/>
<rect x="0" y="0" width="1600" height="900" fill="#0b1f34" opacity="0.32"/>
<g opacity="0.22" stroke="#86a7c6">
  <line x1="130" y1="90" x2="130" y2="810"/>
  <line x1="1470" y1="90" x2="1470" y2="810"/>
</g>
<g fill="#11263b" stroke="#34506d" stroke-width="3">
  <rect x="110" y="120" width="320" height="660" rx="8"/>
  <rect x="480" y="120" width="320" height="660" rx="8"/>
  <rect x="850" y="120" width="320" height="660" rx="8"/>
  <rect x="1220" y="120" width="210" height="660" rx="8"/>
</g>
<g fill="#21415e" opacity="0.9">
  <rect x="145" y="160" width="250" height="24"/>
  <rect x="145" y="208" width="250" height="24"/>
  <rect x="145" y="256" width="250" height="24"/>
  <rect x="145" y="304" width="250" height="24"/>
  <rect x="145" y="352" width="250" height="24"/>
  <rect x="145" y="400" width="250" height="24"/>
  <rect x="145" y="448" width="250" height="24"/>
  <rect x="145" y="496" width="250" height="24"/>
  <rect x="145" y="544" width="250" height="24"/>
  <rect x="145" y="592" width="250" height="24"/>
  <rect x="145" y="640" width="250" height="24"/>
  <rect x="515" y="160" width="250" height="24"/>
  <rect x="515" y="208" width="250" height="24"/>
  <rect x="515" y="256" width="250" height="24"/>
  <rect x="515" y="304" width="250" height="24"/>
  <rect x="515" y="352" width="250" height="24"/>
  <rect x="515" y="400" width="250" height="24"/>
  <rect x="515" y="448" width="250" height="24"/>
  <rect x="515" y="496" width="250" height="24"/>
  <rect x="515" y="544" width="250" height="24"/>
  <rect x="515" y="592" width="250" height="24"/>
  <rect x="515" y="640" width="250" height="24"/>
  <rect x="885" y="160" width="250" height="24"/>
  <rect x="885" y="208" width="250" height="24"/>
  <rect x="885" y="256" width="250" height="24"/>
  <rect x="885" y="304" width="250" height="24"/>
  <rect x="885" y="352" width="250" height="24"/>
  <rect x="885" y="400" width="250" height="24"/>
  <rect x="885" y="448" width="250" height="24"/>
  <rect x="885" y="496" width="250" height="24"/>
  <rect x="885" y="544" width="250" height="24"/>
  <rect x="885" y="592" width="250" height="24"/>
  <rect x="885" y="640" width="250" height="24"/>
</g>
<rect x="1235" y="140" width="180" height="300" rx="14" fill="#081320" stroke="#6784a5"/>
<rect x="1235" y="470" width="180" height="190" rx="14" fill="#081320" stroke="#6784a5"/>
<rect x="1180" y="86" width="120" height="18" fill="url(#gold)" opacity="0.86"/>
<text x="1180" y="80" fill="#f7d79b" font-size="24" font-family="sans-serif">市档案中心</text>
<text x="118" y="850" fill="#d6ae66" font-size="40" font-family="serif">纸页会沉默，但编号不会。</text>
</svg>