<svg xmlns="http://www.w3.org/2000/svg" viewBox="0 0 1600 900" role="img" aria-label="云港医院">
  <defs>
    <linearGradient id="g" x1="0" x2="1" y1="0" y2="1">
      <stop offset="0%" stop-color="#08101c"/>
      <stop offset="55%" stop-color="#071426"/>
      <stop offset="100%" stop-color="#121c35"/>
    </linearGradient>
    <radialGradient id="r" cx="66%" cy="22%" r="48%">
      <stop offset="0%" stop-color="#8fe8ff" stop-opacity=".52"/>
      <stop offset="68%" stop-color="#8fe8ff" stop-opacity=".08"/>
      <stop offset="100%" stop-color="#000" stop-opacity="0"/>
    </radialGradient>
    <filter id="glow"><feGaussianBlur stdDeviation="7" result="b"/><feMerge><feMergeNode in="b"/><feMergeNode in="SourceGraphic"/></feMerge></filter>
    <pattern id="rain" width="80" height="80" patternUnits="userSpaceOnUse" patternTransform="rotate(15)">
      <line x1="8" y1="0" x2="8" y2="34" stroke="#9bc7ff" stroke-width="2" opacity=".20"/>
      <line x1="47" y1="16" x2="47" y2="58" stroke="#fff" stroke-width="1" opacity=".11"/>
    </pattern>
  </defs>
  <rect width="1600" height="900" fill="url(#g)"/>
  <rect width="1600" height="900" fill="url(#r)"/>
  
<rect x="210" y="120" width="1180" height="620" rx="28" fill="#081827" stroke="#a7ecff" stroke-width="4" opacity=".9"/>
<rect x="360" y="190" width="880" height="440" rx="20" fill="#0e2c44" opacity=".85"/>
<g fill="#d8f8ff" opacity=".75">
  <rect x="455" y="270" width="140" height="70" rx="10"/><rect x="715" y="270" width="140" height="70" rx="10"/><rect x="975" y="270" width="140" height="70" rx="10"/>
  <rect x="455" y="420" width="140" height="70" rx="10"/><rect x="715" y="420" width="140" height="70" rx="10"/><rect x="975" y="420" width="140" height="70" rx="10"/>
</g>
<path d="M800 142 v120 M740 202 h120" stroke="#ff6b7c" stroke-width="34" stroke-linecap="round"/>
<text x="540" y="690" font-size="52" fill="#e2fbff" font-family="serif">云港医院</text>

  <rect width="1600" height="900" fill="url(#rain)" opacity=".75"/>
  <rect y="700" width="1600" height="200" fill="#02060c" opacity=".52"/>
  <path d="M0 820 C280 760 390 860 650 805 S1120 760 1600 830 L1600 900 L0 900Z" fill="#030913" opacity=".72"/>
</svg>